<?xml version="1.0" ?><svg enable-background="new 0 0 52 52" id="Layer_1" version="1.1" viewBox="0 0 52 52" xml:space="preserve" xmlns="http://www.w3.org/2000/svg" xmlns:xlink="http://www.w3.org/1999/xlink"><g><g><path d="M24.9976692,24.9631042V2.3122253C22.3126106,3.5053406,10.7991829,8.4109802,3.5555308,8.4109802    c-0.1699829,0-0.3499756,0-0.5199585-0.0100098l-1.0100098-0.039978L2.005543,9.3710022    c-0.0046997,0.1503296-0.1208496,7.2398071,2.2537839,15.5921021H24.9976692z"/></g><g><path d="M26.9976692,24.9631042h20.6503296C50.070179,16.615509,50.0002327,9.5313416,49.995533,9.381012    l-0.0199585-1.0200195l-1.0100098,0.039978C41.7498665,8.6754456,29.752491,3.5445862,26.9976692,2.315155V24.9631042z" fill="#3A92CC"/></g><g><path d="M24.9976692,26.9631042H4.8746223c2.8745728,8.7926025,8.631897,18.4397583,20.1230469,22.7246704    V26.9631042z" fill="#3A92CC"/></g><g><path d="M26.9976692,26.9631042v22.6444702c11.3580322-4.3238525,17.1159668-13.9058228,20.0233154-22.6444702H26.9976692z"/></g></g></svg>